Poster: 
http://www.shotpix.com/images/77859342028434157195.jpg

Info:

Format : AVI
Format/Info : Audio Video Interleave
File size : 820 MiB
Duration : 2h 31mn
Overall bit rate : 754 Kbps

Video
ID : 0
Format : MPEG-4 Visual
Format profile : Advanced Simple@L5
Format settings, BVOP : 2
Format settings, QPel : Yes
Format settings, GMC : No warppoints
Format settings, Matrix : Default (H.263)
Codec ID : XVID
Codec ID/Hint : XviD
Duration : 2h 31mn
Bit rate : 428 Kbps
Width : 608 pixels
Height : 276 pixels
Display aspect ratio : 2.2:1
Frame rate : 25.000 fps
Color space : YUV
Chroma subsampling : 4:2:0
Bit depth : 8 bits
Scan type : Progressive
Compression mode : Lossy
Bits/(Pixel*Frame) : 0.102
Stream size : 465 MiB (57%)
Writing library : XviD 1.2.1 (UTC 2008-12-04)

Audio
ID : 1
Format : MPEG Audio
Format version : Version 1
Format profile : Layer 3
Mode : Joint stereo
Mode extension : MS Stereo
Codec ID : 55
Codec ID/Hint : MP3
Duration : 2h 31mn
Bit rate mode : Constant
Bit rate : 320 Kbps
Channel(s) : 2 channels
Sampling rate : 48.0 KHz
Compression mode : Lossy
Stream size : 348 MiB (42%)
Alignment : Aligned on interleaves
Interleave, duration : 160 ms (4.00 video frames)
Interleave, preload duration : 216 ms
Title : VTS_01_1-muxed (1) (1).avi_track_1_
Writing library : LAME3.99r
Encoding settings : -m j -V 4 -q 2 -lowpass 20.5

Screens: 
http://www.shotpix.com/images/69930021204078471249.jpg 
http://www.shotpix.com/images/48417981791656875707.jpg 
http://www.shotpix.com/images/60903219773201304317.jpg 
http://www.shotpix.com/images/41159494854257668838.jpg




